<svg viewBox="0 0 124 124" fill="none" xmlns="http://www.w3.org/2000/svg">
<path d="M10.8525 89.8949C10.8184 87.5538 10.6935 85.7808 10.1976 83.47C9.77492 81.5003 9.14746 79.8784 8.56127 77.9721C7.99158 76.1195 7.49471 74.0037 7.14032 72.103C3.8327 54.3631 9.32945 36.0847 21.9303 23.1337C32.2605 12.5163 46.1493 6.49198 60.9789 6.21525C75.7992 5.93268 90.2103 11.5459 100.849 21.9152C111.697 32.4885 117.527 46.1739 117.798 61.249C118.343 91.6906 93.3051 117.304 62.9154 117.581C57.6805 117.629 52.6281 117.072 47.5702 115.632C45.7331 115.12 44.0141 114.533 42.2086 113.928C41.5971 113.724 40.8826 113.575 40.2606 113.421C40.0171 113.361 38.6413 113.121 38.5157 113.061C38.2423 113.043 37.9389 113.005 37.6661 112.972C34.1271 112.547 30.5811 112.916 27.1197 113.725C24.2578 114.394 21.6064 115.783 18.5924 115.667C15.5301 115.55 12.8965 114.011 10.8329 111.81C6.23638 106.969 8.73206 101.548 10.0769 96.0042C10.5903 93.8877 10.7767 92.0713 10.8525 89.8949Z" fill="url(#paint0_linear_644_94)"/>
<path fill-rule="evenodd" clip-rule="evenodd" d="M38.0558 48.9467C40.8193 48.7878 43.8254 49.6011 45.7935 51.5801C48.7527 54.5559 49.9477 59.4086 49.6832 63.5078C49.4571 67.0149 48.1783 70.3934 45.5214 72.7392C42.8015 75.1405 39.4855 75.5636 36.0081 75.0455C34.3864 74.8142 32.8614 73.9834 31.4699 75.3125C30.453 76.284 30.7564 77.4215 30.6824 78.6728C30.646 79.6201 30.6459 80.5677 30.6271 81.5109L30.5508 84.4692C28.3267 86.797 25.7294 86.8713 24.1645 83.7699C24.0391 83.5214 23.8454 83.1355 23.8212 82.861L23.8029 82.6372C23.6925 81.3172 23.7742 78.8587 23.7744 77.4354L23.773 56.9997C23.7734 55.3315 23.7577 53.6073 23.7972 51.9392C23.8076 51.5031 24.1202 50.9067 24.4283 50.5835C26.9711 47.9157 29.155 50.6352 32.0578 50.2802C33.092 50.1539 33.8138 49.8203 34.775 49.5338C35.8897 49.2013 36.919 49.0323 38.0558 48.9467ZM37.1222 71.2387C45.3496 69.4791 43.9356 52.7478 35.9298 53.477C27.6551 55.2292 29.1139 72.0293 37.1222 71.2387Z" fill="#FEFEFE"/>
<path d="M93.106 49.132C94.9292 49.1725 96.4624 49.4835 97.8973 50.6772C100.603 52.9283 100.222 55.3685 100.218 58.5059L100.214 64.8159L100.22 70.0225C100.222 71.0314 100.253 72.1032 100.164 73.1057C100.115 73.6575 99.9583 73.9617 99.6144 74.3823C99.1752 74.9196 98.3585 75.2858 97.6523 75.2697C96.4539 75.2422 95.1288 75.5089 94.184 74.5887C93.8205 74.2345 93.4747 73.6535 93.4358 73.177C93.3203 71.7603 93.3877 70.1403 93.3829 68.7112C93.392 64.908 93.3812 61.1742 93.3759 57.365C93.3721 54.798 91.4722 53.0975 88.9321 53.1715C87.7062 53.2073 86.8166 53.7814 86.0004 54.6694C84.6663 56.3374 84.9931 58.1051 84.994 60.1273L84.9958 69.0164C84.9958 70.0933 85.0069 71.1732 85.0063 72.2466C85.0056 72.9821 84.9308 73.7226 84.4472 74.3038C83.9812 74.8634 83.275 75.2622 82.537 75.2723C81.3408 75.2884 79.9392 75.4811 78.979 74.6023C78.0162 73.7518 78.1705 72.6995 78.1705 71.5416L78.1707 68.5476C78.1713 64.7061 78.2629 60.8348 78.0397 57.0049C77.9755 55.1393 77.7204 52.2736 79.0854 50.7997C80.9516 48.7851 84.1754 50.6243 86.439 50.4814C87.649 50.4049 88.7047 49.9518 89.8502 49.6178C90.9544 49.2958 91.97 49.1642 93.106 49.132Z" fill="#FEFEFE"/>
<path d="M66.5433 49.8602C67.4664 49.8333 72.267 49.7258 72.7964 50.0261C72.9706 50.9174 72.9173 52.4368 72.9167 53.3939L72.9215 68.8652C72.9217 69.7714 72.9997 74.5892 72.799 74.997C72.6329 75.148 72.5084 75.1413 72.2842 75.1756C71.4427 75.1924 66.464 75.3321 66.083 75.0011C65.849 74.2338 65.933 71.5193 65.9332 70.5965L65.9352 55.3312C65.9348 54.4109 65.8378 50.6033 66.0593 50.0259C66.2125 49.8831 66.3334 49.8905 66.5433 49.8602Z" fill="#FEFEFE"/>
<path d="M55.13 40.233C56.031 40.221 59.9919 40.1432 60.7869 40.3523C61.0614 40.4244 60.9783 44.2249 60.9782 44.9329L60.9791 66.9209C60.9795 69.3033 60.9869 71.6864 60.9801 74.0686C60.977 75.1269 60.8833 75.1699 59.9128 75.1815C59.0057 75.1852 54.5862 75.3217 54.1094 74.9877C53.8548 73.8484 53.9984 71.2095 53.9986 69.9157L54 47.3562C54.0019 45.2856 53.9996 43.215 53.9923 41.1447C53.9889 40.164 54.3248 40.2485 55.13 40.233Z" fill="#FEFEFE"/>
<circle cx="69.4401" cy="44.2262" r="3.51333" fill="#FC78C4"/>
<defs>
<linearGradient id="paint0_linear_644_94" x1="101.722" y1="22.9875" x2="21.8958" y2="101.083" gradientUnits="userSpaceOnUse">
<stop stop-color="#18EDBF"/>
<stop offset="1" stop-color="#0895EC"/>
</linearGradient>
</defs>
</svg>