<svg viewBox="0 0 124 124" fill="none" xmlns="http://www.w3.org/2000/svg">
<rect width="124" height="124" rx="10" fill="#600C73"/>
<path fill-rule="evenodd" clip-rule="evenodd" d="M65.1164 13.0391C66.2614 12.9438 67.5313 13.0436 68.6544 13.2055C77.9705 14.5531 84.5368 23.5184 82.9953 32.8207C81.4083 42.3973 72.6797 48.5538 63.1375 47.0061C61.9841 46.8203 60.8963 46.4744 59.8047 46.0737L56.4114 48.4121C55.8045 48.8326 55.201 49.2784 54.5642 49.6543C53.8901 50.1061 53.1241 49.8336 53.1645 48.953C53.2708 46.6241 53.4075 44.1832 53.5744 41.8634C50.953 38.7494 49.3259 35.7351 49.0141 31.5785C48.2802 21.7892 55.3669 13.7654 65.1164 13.0391ZM67.6022 27.7854C67.3852 24.8527 65.168 23.2557 62.3427 23.3973C59.5257 23.6322 57.6601 25.3742 57.9719 28.3465C58.3508 31.9555 62.3931 31.8099 64.855 33.1169C66.3484 33.9172 65.8358 36.1858 64.215 36.621C62.5189 37.0997 60.456 36.6598 59.8975 34.7559C59.8353 34.5432 59.6492 33.6422 59.5681 33.5064C58.8763 32.3519 57.3306 33.037 57.4463 34.2872C57.7085 37.1236 59.4599 38.9559 62.3154 39.192C63.8674 39.2344 65.3185 39.0724 66.5153 37.9544C68.239 36.344 68.5508 33.2285 66.8521 31.4879C65.6801 30.2884 63.9691 29.9721 62.4226 29.5092C61.4586 29.2205 60.144 28.8707 60.1639 27.619C60.1838 26.394 61.2401 25.8121 62.3535 25.7804C63.1436 25.7579 64.0824 25.8081 64.6711 26.4152C65.5047 27.2777 64.938 28.9174 66.4532 29.1443C66.7124 29.1611 66.9762 29.055 67.167 28.8849C67.4588 28.6249 67.6314 28.1769 67.6022 27.7854ZM77.4113 24.5959C77.0446 24.2058 76.6213 24.1192 76.1079 24.1869C75.3337 24.6023 74.7266 26.0121 74.2949 26.8126L72.6119 29.8956L69.9905 34.6449C69.587 35.3769 68.9697 36.357 68.7033 37.1327C68.3924 38.0381 69.3356 38.6556 70.1714 38.5663C70.4607 38.4086 70.6947 38.273 70.8623 37.9757C72.9173 34.3287 74.9065 30.6394 76.9303 26.975C77.2956 26.3132 78.0492 25.2751 77.4113 24.5959Z" fill="#00D1B4"/>
<path fill-rule="evenodd" clip-rule="evenodd" d="M80.0295 53.6021C82.7538 53.4083 84.0696 55.5059 84.4494 57.9231C85.2797 63.2053 83.6472 69.5854 80.8863 74.1181C80.0503 75.4904 78.3344 76.991 76.7156 77.2459C74.6225 77.5536 73.2567 76.626 71.6615 75.4817L70.8095 81.283C76.4818 80.458 82.2693 79.9579 87.9827 79.5088L90.8154 79.291C91.4215 79.2414 92.0601 79.1417 92.6672 79.1796C93.1111 79.2071 93.5314 79.3258 93.8797 79.6117C94.4051 80.043 94.7202 80.7639 94.7688 81.4328C94.8175 82.1015 94.577 82.7878 93.9589 83.1205C92.8858 83.6978 86.6339 84.3468 85.0638 84.5541L74.5966 85.9229C73.6737 86.0382 71.2002 86.2621 70.3942 86.5742C69.6751 86.8528 69.5765 88.792 68.7651 89.4988C66.5777 91.4034 65.5657 89.12 65.6238 87.131C64.1992 87.361 62.7688 87.5613 61.349 87.821C57.5381 88.5184 53.7465 89.3591 49.9496 90.1327C48.6561 90.3961 45.4216 90.8895 44.39 91.371C43.5744 91.752 42.6049 95.3033 42.2565 96.2325C40.4004 101.184 36.7826 108.225 31.7407 110.487C30.1758 111.189 28.4199 111.534 26.7756 110.889C25.3666 110.337 24.1548 109.202 23.5623 107.805C22.6721 105.706 23.2624 103.289 23.9678 101.226C26.0053 95.2688 30.5433 91.3943 35.9841 88.6484C36.9644 88.1538 39.0511 87.305 39.7306 86.519C40.4179 85.7233 42.0406 79.7631 42.6602 78.2369C41.6519 79.1317 40.7424 79.9624 39.6322 80.7473C37.6755 82.1305 35.0863 81.7916 33.7627 79.7236C32.5808 77.8767 33.3917 75.181 33.8376 73.1715C34.2202 71.6009 34.6069 69.9149 35.0887 68.3767C35.6439 66.6037 36.5148 64.9639 36.6824 63.0678C36.7559 62.2364 36.6889 61.0399 37.4283 60.4964C38.6671 59.6317 41.3374 61.193 41.0649 62.7025C40.5197 65.7194 39.3409 68.7385 38.6609 71.7384C38.4469 72.6822 37.913 75.1518 39.2839 75.4304C40.6454 75.7071 42.0566 73.8246 42.6922 72.8278C43.2939 71.7554 43.6534 70.6011 44.1229 69.4647C45.4472 66.2607 46.4375 62.8315 47.8136 59.6647C48.3707 58.3827 49.8965 57.4044 51.2161 57.1111C53.5613 56.5901 53.4217 58.1034 52.9188 59.7994C52.7172 60.4959 52.5045 61.3047 52.3087 62.0112L50.7836 67.5445L45.838 85.2818L59.1076 83.0994C61.2179 82.7649 63.3322 82.4511 65.4411 82.1098C66.0132 81.9617 66.6864 81.9193 66.8511 81.2232C67.1349 80.024 67.3076 78.8101 67.5972 77.6027C65.0052 78.3921 62.5652 79.9132 61.4237 76.2857C60.4808 77.6538 59.4287 79.2899 57.7554 79.7505C55.2496 80.4405 52.7791 79.0728 52.1423 76.5433C50.8508 71.4118 52.4581 65.8925 54.8552 61.325C55.8697 59.3917 57.9087 56.8345 60.1042 56.1906C61.6597 55.7869 63.0237 56.3225 64.351 57.0854C65.3338 55.4008 65.6084 54.9592 67.6468 55.6031C68.1074 55.7484 68.6126 56.2239 68.6857 56.7183C68.77 57.2889 68.5827 57.928 68.4792 58.4883C67.7643 61.9834 66.9322 65.4617 66.354 68.983C66.207 69.8777 66.0336 70.811 66.0411 71.7171C66.045 72.2172 66.2367 72.5694 66.439 73.0128C68.9695 72.3843 68.9278 70.3655 69.3629 68.1832L70.9078 60.2881C71.1686 58.9459 71.4131 57.6205 71.7052 56.2682C72.0513 54.6659 73.7834 54.0292 75.1205 54.9458C75.6408 55.3024 75.677 55.8959 75.7455 56.4723C77.1609 55.1264 78.0683 53.982 80.0295 53.6021ZM37.8815 93.1316C33.4684 95.2536 29.8563 98.4871 28.2119 103.205C27.8519 104.238 27.5824 105.123 28.4065 106.035C28.8575 106.221 29.292 106.16 29.7401 105.984C32.9106 104.739 36.1634 97.8283 37.4101 94.7926C37.5557 94.4378 38.0662 93.4402 37.977 93.126L37.8815 93.1316ZM62.416 60.2571C58.104 61.529 56.5082 66.4969 56.2014 70.5297C56.1298 71.4698 56.7551 73.4837 57.607 74.0291C58.1074 74.1808 58.4652 74.2133 58.9444 73.9465C60.1343 73.2838 60.464 71.721 60.8617 70.5084C61.7933 67.6688 62.7186 64.8099 63.563 61.9423C63.6695 61.5766 63.7684 61.1815 63.5628 60.8325C63.3058 60.3903 62.8995 60.2544 62.416 60.2571ZM78.7811 58.4905C77.641 58.8416 76.5921 60.2255 76.0542 61.2485C75.5139 62.2767 72.8296 71.5016 73.0298 72.1891C73.1015 72.4347 73.284 72.6134 73.5133 72.717C73.835 72.8623 74.223 72.8802 74.5704 72.8933C75.8346 72.7713 76.1981 72.5391 77.1519 71.6238C78.9139 69.9329 82.2369 59.0363 78.7811 58.4905Z" fill="#FEFEFE"/>
<path fill-rule="evenodd" clip-rule="evenodd" d="M95.0747 51.5146C97.3951 51.3174 99.9538 52.3049 100.206 54.9454C100.572 58.7875 97.6313 63.0064 94.36 64.7943C93.8216 65.0885 93.2191 65.3384 92.6418 65.5482C91.9532 65.8465 90.429 65.9687 90.0179 66.6399C89.3247 67.7713 89.1753 70.2427 90.4848 70.9854C92.39 72.0655 94.6045 69.5593 95.9632 68.4413C96.5641 67.9469 97.0486 67.2232 97.8238 67.0094C98.8146 66.7867 99.25 68.435 99.4413 69.1315C99.6341 69.8341 99.4277 70.3051 99.0757 70.8842C97.4263 73.1394 93.6777 75.9293 90.8335 76.244C83.0916 77.0839 84.5591 66.6349 86.0974 62.0363C87.378 58.2079 90.6686 52.0981 95.0747 51.5146ZM94.7715 55.7937C93.3729 56.4934 91.7698 60.1312 90.8891 61.5243C90.8274 61.6219 90.9522 61.7491 91.0073 61.8156C91.371 61.9394 91.6285 61.8085 91.9837 61.6719C93.8616 60.8673 96.5219 59.0847 95.9134 56.3857C95.8066 55.9125 95.2248 55.7687 94.7715 55.7937Z" fill="#FEFEFE"/>
</svg>