<svg id="Layer_1" enable-background="new 0 0 512 512" height="512" viewBox="0 0 512 512" width="512" xmlns="http://www.w3.org/2000/svg"><g><path d="m22.922 422.374h30.905v84.988h-30.905z" fill="#497285"/><path d="m458.173 422.374h30.905v84.988h-30.905z" fill="#497285"/><g fill="#d2d5d4"><path d="m390.443 286.39h47.289c5.744 0 10.401-4.657 10.401-10.401v-18.345c0-5.744-4.657-10.401-10.401-10.401h-26.838c-11.295 0-20.452 9.157-20.452 20.452v18.695z"/><path d="m121.557 286.39h-47.289c-5.744 0-10.401-4.657-10.401-10.401v-18.345c0-5.744 4.657-10.401 10.401-10.401h26.838c11.295 0 20.452 9.157 20.452 20.452v18.695z"/></g><g><path d="m155.042 481.095h-39.147c-6.827 0-12.362-5.535-12.362-12.362v-93.746c0-6.827 5.535-12.362 12.362-12.362h39.147c6.827 0 12.362 5.535 12.362 12.362v93.746c0 6.827-5.534 12.362-12.362 12.362z" fill="#497285"/><path d="m155.042 362.624h-30.905c6.827 0 12.362 5.535 12.362 12.362v93.746c0 6.827-5.535 12.362-12.362 12.362h30.905c6.827 0 12.362-5.535 12.362-12.362v-93.746c0-6.827-5.534-12.362-12.362-12.362z" fill="#426778"/><path d="m389.924 481.095h-39.147c-6.827 0-12.362-5.535-12.362-12.362v-93.746c0-6.827 5.535-12.362 12.362-12.362h39.147c6.827 0 12.362 5.535 12.362 12.362v93.746c0 6.827-5.535 12.362-12.362 12.362z" fill="#497285"/><path d="m389.924 362.624h-30.905c6.827 0 12.362 5.535 12.362 12.362v93.746c0 6.827-5.535 12.362-12.362 12.362h30.905c6.827 0 12.362-5.535 12.362-12.362v-93.746c0-6.827-5.535-12.362-12.362-12.362z" fill="#426778"/></g><path d="m401.256 286.39h-290.512l16.7-88.595h257.112z" fill="#b9f5ff"/><path d="m384.556 197.795h-30.906l16.7 88.595h30.906z" fill="#8aeeff"/><path d="m384.931 197.795h-257.862c-4.464 0-8.083-3.619-8.083-8.083 0-11.467 9.296-20.762 20.762-20.762h232.504c11.467 0 20.762 9.296 20.762 20.762 0 4.464-3.619 8.083-8.083 8.083z" fill="#ffde5c"/><path d="m372.252 168.95h-30.905c11.467 0 20.762 9.296 20.762 20.762 0 4.464-3.619 8.083-8.083 8.083h30.905c4.464 0 8.083-3.619 8.083-8.083 0-11.467-9.295-20.762-20.762-20.762z" fill="#ffc736"/><path d="m414.886 401.771h-317.772c-11.248 0-20.366-9.118-20.366-20.366v-56.541c0-26.938 21.837-48.775 48.775-48.775h260.953c26.938 0 48.775 21.837 48.775 48.775v56.541c.001 11.248-9.118 20.366-20.365 20.366z" fill="#ffde5c"/><path d="m386.476 276.089h-30.905c26.938 0 48.775 21.837 48.775 48.775v56.541c0 11.248-9.118 20.366-20.366 20.366h30.905c11.248 0 20.366-9.118 20.366-20.366v-56.541c.001-26.938-21.837-48.775-48.775-48.775z" fill="#ffc736"/><path d="m420.829 442.978h-329.658c-7.965 0-14.423-6.457-14.423-14.423v-12.362c0-7.965 6.457-14.423 14.423-14.423h329.658c7.965 0 14.423 6.457 14.423 14.423v12.362c0 7.966-6.458 14.423-14.423 14.423z" fill="#d2d5d4"/><path d="m420.829 401.771h-30.905c7.965 0 14.423 6.457 14.423 14.423v12.362c0 7.965-6.457 14.423-14.423 14.423h30.905c7.965 0 14.423-6.457 14.423-14.423v-12.362c0-7.966-6.458-14.423-14.423-14.423z" fill="#c7c9c8"/><path d="m311.393 234.469c-22.949 0-41.619 18.671-41.619 41.62 0 4.143 3.357 7.5 7.5 7.5s7.5-3.357 7.5-7.5c0-14.679 11.941-26.62 26.619-26.62 14.679 0 26.62 11.941 26.62 26.62 0 4.143 3.357 7.5 7.5 7.5s7.5-3.357 7.5-7.5c0-22.949-18.671-41.62-41.62-41.62z" fill="#497285"/><path d="m385.803 366.745h-39.147c-10.241 0-18.543-8.302-18.543-18.543 0-10.241 8.302-18.543 18.543-18.543h39.147c10.241 0 18.543 8.302 18.543 18.543 0 10.24-8.302 18.543-18.543 18.543z" fill="#b9f5ff"/><path d="m385.803 329.658h-30.905c10.241 0 18.543 8.302 18.543 18.543 0 10.241-8.302 18.543-18.543 18.543h30.905c10.241 0 18.543-8.302 18.543-18.543 0-10.241-8.302-18.543-18.543-18.543z" fill="#8aeeff"/><path d="m165.344 366.745h-39.147c-10.241 0-18.543-8.302-18.543-18.543 0-10.241 8.302-18.543 18.543-18.543h39.147c10.241 0 18.543 8.302 18.543 18.543 0 10.24-8.302 18.543-18.543 18.543z" fill="#b9f5ff"/><path d="m165.344 329.658h-30.905c10.241 0 18.543 8.302 18.543 18.543 0 10.241-8.302 18.543-18.543 18.543h30.905c10.241 0 18.543-8.302 18.543-18.543 0-10.241-8.302-18.543-18.543-18.543z" fill="#8aeeff"/><path d="m296.177 401.771h-80.354v-56.165c0-5.394 4.373-9.767 9.767-9.767h60.82c5.394 0 9.767 4.373 9.767 9.767z" fill="#497285"/><path d="m496.547 512h-481.094c-8.535 0-15.453-6.918-15.453-15.453 0-8.534 6.918-15.453 15.453-15.453h481.095c8.534 0 15.453 6.918 15.453 15.453-.001 8.535-6.919 15.453-15.454 15.453z" fill="#d2d5d4"/><path d="m496.547 481.095h-30.905c8.534 0 15.453 6.918 15.453 15.453 0 8.534-6.918 15.453-15.453 15.453h30.905c8.534 0 15.453-6.918 15.453-15.453 0-8.535-6.918-15.453-15.453-15.453z" fill="#c7c9c8"/><path d="m62.782 450.387h-48.815c-7.714 0-13.967-6.253-13.967-13.967v-422.453c0-7.714 6.253-13.967 13.967-13.967h48.815c7.714 0 13.967 6.253 13.967 13.967v422.453c0 7.714-6.254 13.967-13.967 13.967z" fill="#f1f1f1"/><path d="m62.782 0h-30.906c7.714 0 13.967 6.253 13.967 13.967v422.454c0 7.713-6.253 13.967-13.967 13.967h30.905c7.714 0 13.967-6.254 13.967-13.967v-422.454c.001-7.714-6.253-13.967-13.966-13.967z" fill="#e2e2e2"/><path d="m498.033 450.387h-48.815c-7.714 0-13.967-6.253-13.967-13.967v-422.453c.001-7.714 6.254-13.967 13.967-13.967h48.815c7.714 0 13.967 6.253 13.967 13.967v422.453c0 7.714-6.253 13.967-13.967 13.967z" fill="#f1f1f1"/><path d="m498.033 0h-30.905c7.714 0 13.967 6.253 13.967 13.967v422.454c0 7.713-6.253 13.967-13.967 13.967h30.905c7.714 0 13.967-6.254 13.967-13.967v-422.454c0-7.714-6.253-13.967-13.967-13.967z" fill="#e2e2e2"/><path d="m303.973 70.182h-95.947c-2.299 0-4.162-1.863-4.162-4.162v-9.817c0-13.972 11.326-25.298 25.298-25.298h53.675c13.972 0 25.298 11.326 25.298 25.298v9.817c0 2.299-1.863 4.162-4.162 4.162z" fill="#ef483c"/><path d="m282.838 30.905h-30.905c13.972 0 25.298 11.326 25.298 25.298v9.817c0 2.299-1.863 4.162-4.162 4.162h30.905c2.299 0 4.162-1.863 4.162-4.162v-9.817c-.001-13.972-11.327-25.298-25.298-25.298z" fill="#de4135"/><path d="m240.547 0h30.905v30.905h-30.905z" fill="#497285"/><g fill="#8aeeff"><path d="m208.446 93.623c-3.24-2.578-7.96-2.042-10.538 1.2l-7.061 8.875c-2.579 3.241-2.042 7.959 1.2 10.538 1.38 1.098 3.027 1.631 4.664 1.631 2.207 0 4.394-.97 5.874-2.831l7.061-8.875c2.58-3.241 2.043-7.959-1.2-10.538z"/><path d="m230.878 101.869c-3.942-1.268-8.167.902-9.435 4.847l-3.53 10.988c-1.267 3.943.903 8.168 4.847 9.435.763.245 1.535.361 2.296.361 3.17 0 6.116-2.027 7.139-5.208l3.53-10.988c1.266-3.944-.904-8.168-4.847-9.435z"/><path d="m321.152 103.698-7.061-8.875c-2.579-3.244-7.297-3.778-10.538-1.2-3.242 2.579-3.779 7.297-1.2 10.538l7.061 8.875c1.48 1.862 3.667 2.831 5.874 2.831 1.637 0 3.284-.533 4.664-1.631 3.242-2.579 3.779-7.297 1.2-10.538z"/><path d="m290.557 106.716c-1.268-3.945-5.494-6.115-9.435-4.847-3.943 1.267-6.113 5.491-4.847 9.435l3.53 10.988c1.022 3.182 3.968 5.208 7.139 5.208.761 0 1.533-.116 2.296-.361 3.943-1.267 6.113-5.491 4.847-9.435z"/><path d="m256 107.004c-4.143 0-7.5 3.357-7.5 7.5v12.459c0 4.143 3.357 7.5 7.5 7.5s7.5-3.357 7.5-7.5v-12.459c0-4.143-3.357-7.5-7.5-7.5z"/></g><path d="m350.83 306.998h-189.66c-5.422 0-10.529-2.547-13.791-6.879l-18.092-24.027h253.425l-18.092 24.027c-3.261 4.331-8.368 6.879-13.79 6.879z" fill="#ffc736"/></g></svg>