<?xml version="1.0" encoding="iso-8859-1"?>
<!-- Generator: Adobe Illustrator 19.0.0, SVG Export Plug-In . SVG Version: 6.00 Build 0)  -->
<svg version="1.1" id="Capa_1" xmlns="http://www.w3.org/2000/svg" xmlns:xlink="http://www.w3.org/1999/xlink" x="0px" y="0px"
	 viewBox="0 0 512 512" style="enable-background:new 0 0 512 512;" xml:space="preserve">
<rect x="46.933" y="85.333" style="fill:#F2F2F2;" width="417.067" height="403.2"/>
<rect y="477.867" style="fill:#ACB3BA;" width="512" height="34.133"/>
<g>
	<rect x="82.133" y="125.867" style="fill:#84DBFF;" width="86.4" height="116.267"/>
	<rect x="342.4" y="125.867" style="fill:#84DBFF;" width="86.4" height="116.267"/>
	<rect x="82.133" y="291.2" style="fill:#84DBFF;" width="86.4" height="116.267"/>
	<rect x="342.4" y="291.2" style="fill:#84DBFF;" width="86.4" height="116.267"/>
	<rect x="212.267" y="125.867" style="fill:#84DBFF;" width="86.4" height="116.267"/>
</g>
<path style="fill:#FF7058;" d="M452.267,0H59.733c-18.133,0-32,13.867-32,32v53.333h456.533V32C484.267,13.867,469.333,0,452.267,0z
	"/>
<rect x="196.267" y="291.2" style="fill:#54C0EB;" width="119.467" height="151.467"/>
<rect x="139.733" y="442.667" style="fill:#CDD6E0;" width="232.533" height="34.133"/>
<g>
	<path style="fill:#FFFFFF;" d="M160,14.933h12.8V70.4H160V49.067h-21.333V70.4h-12.8V14.933h12.8V38.4H160V14.933z"/>
	<path style="fill:#FFFFFF;" d="M232.533,62.933c-5.333,5.333-12.8,8.533-20.267,8.533c-8.533,0-14.933-3.2-20.267-8.533
		c-5.333-5.333-8.533-12.8-8.533-20.267c0-8.533,3.2-14.933,8.533-20.267c5.333-5.333,12.8-8.533,20.267-8.533
		c8.533,0,14.933,3.2,20.267,8.533c5.333,5.333,8.533,12.8,8.533,20.267C241.067,51.2,238.933,57.6,232.533,62.933z M228.267,42.667
		c0-5.333-1.067-9.6-4.267-12.8c-3.2-3.2-7.467-5.333-11.733-5.333s-8.533,2.133-11.733,5.333c-3.2,3.2-4.267,7.467-4.267,12.8
		s1.067,9.6,4.267,12.8c3.2,3.2,7.467,5.333,11.733,5.333S220.8,58.667,224,55.467C227.2,52.267,228.267,48,228.267,42.667z"/>
	<path style="fill:#FFFFFF;" d="M274.133,25.6v44.8h-12.8V25.6h-16V14.933h43.733V25.6H274.133z"/>
	<path style="fill:#FFFFFF;" d="M338.133,14.933V25.6H310.4v11.733h24.533V48H310.4v11.733h28.8V70.4h-40.533V14.933H338.133z"/>
	<path style="fill:#FFFFFF;" d="M349.867,70.4V14.933h12.8v44.8h23.467V70.4H349.867z"/>
</g>
<g>
</g>
<g>
</g>
<g>
</g>
<g>
</g>
<g>
</g>
<g>
</g>
<g>
</g>
<g>
</g>
<g>
</g>
<g>
</g>
<g>
</g>
<g>
</g>
<g>
</g>
<g>
</g>
<g>
</g>
</svg>
