<svg width="400" height="400" viewBox="0 0 400 400" fill="none" xmlns="http://www.w3.org/2000/svg">
<g clip-path="url(#clip0_588_65)">
<rect width="400" height="400" fill="#AAD8B0"/>
<path d="M180.089 171.366C226.187 182.949 261 235.689 261 299H61C61 235.689 95.8133 182.949 141.911 171.366C112.529 163.056 91 136.042 91 104C91 65.3401 122.34 34 161 34C199.66 34 231 65.3401 231 104C231 136.042 209.471 163.056 180.089 171.366H180.089Z" fill="#67ADD5"/>
<path d="M249.089 211.366C295.187 222.949 330 275.689 330 339H130C130 275.689 164.813 222.949 210.911 211.366C181.529 203.056 160 176.042 160 144C160 105.34 191.34 74 230 74C268.66 74 300 105.34 300 144C300 176.042 278.471 203.056 249.089 211.366H249.089Z" fill="#DCF0E6"/>
</g>
<defs>
<clipPath id="clip0_588_65">
<rect width="400" height="400" fill="white"/>
</clipPath>
</defs>
</svg>
