<svg width="238" height="238" viewBox="0 0 238 238" fill="none" xmlns="http://www.w3.org/2000/svg">
<path fill-rule="evenodd" clip-rule="evenodd" d="M192.74 0H44.41C19.883 0 0 19.883 0 44.41V192.74C0 217.267 19.883 237.15 44.41 237.15H192.74C217.267 237.15 237.15 217.267 237.15 192.74V44.41C237.15 19.883 217.267 0 192.74 0ZM164.07 86.7C147.87 86.49 134.68 99.55 134.68 115.7C134.68 131.85 147.66 144.7 163.68 144.7C179.7 144.7 192.91 131.48 192.68 115.27C192.45 99.65 179.69 86.91 164.07 86.7ZM163.35 117.31L152.01 124.35C151.61 124.6 151.17 124.71 150.74 124.71C149.92 124.71 149.13 124.3 148.67 123.56C147.96 122.42 148.31 120.92 149.45 120.22L157.5 115.22L149.43 110.08C148.3 109.36 147.97 107.86 148.68 106.73C149.4 105.6 150.9 105.27 152.03 105.98L163.37 113.2C164.08 113.65 164.5 114.43 164.5 115.26C164.5 116.1 164.06 116.87 163.35 117.31ZM176.61 125.79H166.55C165.16 125.79 164.04 124.62 164.13 123.21C164.21 121.92 165.34 120.94 166.63 120.94H176.54C177.83 120.94 178.96 121.92 179.04 123.21C179.13 124.62 178 125.79 176.62 125.79H176.61ZM178.27 181.13L148.31 163.42L44.48 102.04V137.62L149.34 200.13L178.27 181.13ZM76.27 118.1L46.11 100.27L148.62 37.03L179.22 54.59L76.27 118.1ZM179.44 179.08V142.31C174.91 145.23 169.3 146.94 163.7 146.94C158.1 146.94 152.86 145.35 148.43 142.6V160.75L179.44 179.08Z" fill="black"/>
</svg>
